<svg xmlns="http://www.w3.org/2000/svg" xmlns:xlink="http://www.w3.org/1999/xlink" version="1.1" x="0px" y="0px" viewBox="0 0 100 125" enable-background="new 0 0 100 100" xml:space="preserve"><path d="M30.831,58.756c-2.283-2.238-4.933-4.01-7.886-5.27c-0.238-0.1-0.43-0.271-0.572-0.479c-0.394,0.68-0.73,1.319-1.061,1.944  c2.875,1.368,5.477,3.189,7.739,5.43L30.831,58.756z M34.574,55.342c-2.15-2.107-4.636-3.788-7.385-5.029  c-1.06,0.291-1.982,0.589-2.753,0.956c3.118,1.394,5.931,3.297,8.356,5.7L34.574,55.342z M38.32,51.924  c-1.778-1.742-3.793-3.197-5.99-4.353c-0.407,0.667-0.897,1.223-1.548,1.616c2.092,1.207,4.026,2.653,5.754,4.365L38.32,51.924z   M34.352,43.176c-0.337,0.688-0.613,1.35-0.875,1.987c-0.001,0.004-0.003,0.008-0.004,0.012c2.505,1.306,4.796,2.966,6.81,4.962  l1.781-1.625c-0.926-0.909-1.904-1.736-2.914-2.464c-0.471-0.339-0.66-0.916-0.481-1.468c0.178-0.553,0.669-0.91,1.252-0.91  c0.309,0,0.587,0.091,0.813,0.254c1.148,0.831,2.253,1.771,3.291,2.799l2.121-1.934l0.377-8.111  c-1.669,0.77-3.292,1.412-4.769,1.997C38.164,40.088,35.327,41.2,34.352,43.176z M67.97,46.405  c-0.213,1.438-0.964,2.562-2.162,3.388c-0.238,0.162-0.477,0.312-0.701,0.487c-0.301,0.227-0.438,0.551-0.4,0.926  c0.025,0.274,0.075,0.551,0.126,0.825c0.463,2.35-0.876,4.675-2.976,5.551c1,0.586,1.987,1.287,3.088,1.688  c1.737,0.625,3.287,1.286,4.8,2.138c-0.524-0.938-0.699-2.001-0.524-3.176c0.212-1.413,0.938-2.538,2.125-3.35  c0.263-0.188,0.525-0.351,0.775-0.564c0.287-0.225,0.399-0.549,0.362-0.911c-0.025-0.238-0.063-0.463-0.112-0.7  c-0.65-3.201,1.85-6.138,5.101-6.013c0.149,0,0.287-0.013,0.513-0.025c-0.088-0.125-0.126-0.2-0.2-0.238  c-0.7-0.55-1.514-0.875-2.376-1.062c-0.763-0.138-1.512-0.275-2.251-0.438c-0.236-0.05-0.474-0.15-0.762-0.25  c0.276-0.475,0.513-0.938,0.801-1.351c1.25-1.825,2.975-3.025,5.025-3.762c0.274-0.1,0.562-0.188,0.837-0.275  c0.4-0.125,0.588-0.45,0.488-0.825c-0.075-0.351-0.438-0.575-0.825-0.451c-0.588,0.175-1.188,0.375-1.75,0.613  c-1.451,0.625-2.737,1.475-3.814,2.637c-0.024,0.025-0.061,0.05-0.124,0.113c0.812-3.838-0.438-6.851-3.487-9.176  c0,0-0.264-0.225-0.352-0.163c-0.349,0.175-0.486,0.488-0.599,0.8c-0.751,2.313-0.8,4.6,0.187,6.863  c0.426,0.976,0.951,1.9,1.814,2.563c0.361,0.288,0.762,0.525,1.174,0.8c-0.176,0.337-0.362,0.688-0.575,1.088  c-0.362-0.226-0.725-0.438-1.075-0.663c-0.6-0.4-1.187-0.837-1.8-1.213c-0.562-0.362-1.2-0.562-1.851-0.675  c-0.074-0.025-0.148,0-0.225,0c-0.012,0.025-0.024,0.038-0.038,0.062c0.075,0.1,0.15,0.2,0.238,0.288  C67.694,43.191,68.244,44.667,67.97,46.405z M67.656,52.867c-0.037,0.199-0.086,0.388-0.125,0.575  c-0.024,0.013-0.049,0.013-0.062,0.013c-0.238-0.737-0.5-1.463-0.725-2.2c-0.076-0.236,0.049-0.475,0.274-0.612  c0.212-0.15,0.463-0.163,0.688-0.024c0.225,0.148,0.337,0.374,0.288,0.637C67.895,51.792,67.77,52.329,67.656,52.867z M69.77,52.055  c0.175-0.263,0.425-0.325,0.714-0.25c0.212,0.063,0.398,0.288,0.437,0.538c0.024,0.274-0.1,0.512-0.362,0.649  c-0.476,0.226-0.938,0.438-1.413,0.65c-0.2,0.101-0.4,0.188-0.601,0.287c0-0.012-0.012-0.038-0.024-0.05  C68.933,53.28,69.345,52.667,69.77,52.055z M40.365,44.43c-0.12-0.087-0.266-0.134-0.415-0.135l-0.029,0  c-0.67-0.002-0.95,0.854-0.406,1.247c1.222,0.881,2.374,1.884,3.451,2.993l-2.707,2.468c-2.171-2.244-4.646-4.052-7.326-5.413  c-0.169-0.085-0.367-0.1-0.546-0.038l-0.024,0.008c-0.58,0.201-0.625,0.993-0.078,1.271c2.538,1.288,4.882,2.996,6.94,5.116  l-2.711,2.473c-2.597-2.683-5.63-4.741-8.926-6.161c-0.219-0.095-0.476-0.07-0.672,0.066l-0.015,0.01  c-0.445,0.308-0.382,0.985,0.115,1.199c3.125,1.346,6,3.293,8.463,5.832l-2.708,2.47c-2.627-2.714-5.699-4.789-9.039-6.213  c-0.269-0.114-0.584-0.046-0.782,0.17l-0.01,0.011c-0.326,0.356-0.193,0.921,0.251,1.111c3.156,1.345,6.059,3.306,8.544,5.864  l-2.707,2.469c-2.374-2.451-5.111-4.383-8.081-5.782c-0.321-0.151-0.709-0.029-0.887,0.276c-0.003,0.008-0.007,0.013-0.01,0.019  c-0.206,0.355-0.064,0.805,0.308,0.979c2.805,1.322,5.39,3.143,7.634,5.454l-2.202,2.008c-2.14-2.001-4.979-2.997-7.995-2.973  c-0.422,1.566-0.684,3.206-0.761,4.894l-0.291,6.143c-0.035,0.762,0.561,1.416,1.324,1.45l6.143,0.275  c1.688,0.076,3.344-0.033,4.943-0.31c0.301-3.002-0.438-5.927-2.234-8.243l2.201-2.007c2.093,2.451,3.666,5.197,4.72,8.116  c0.14,0.386,0.574,0.569,0.948,0.398c0.005-0.003,0.01-0.005,0.015-0.008c0.323-0.147,0.479-0.524,0.358-0.858  c-1.115-3.09-2.783-5.999-5.005-8.593l2.707-2.469c2.319,2.715,4,5.794,5.046,9.068c0.147,0.459,0.698,0.644,1.083,0.352  c0.003-0.003,0.008-0.006,0.011-0.01c0.233-0.176,0.331-0.483,0.242-0.762c-1.104-3.464-2.887-6.721-5.347-9.594l2.708-2.47  c2.3,2.694,3.973,5.744,5.02,8.986c0.166,0.515,0.838,0.643,1.186,0.229c0.003-0.004,0.007-0.009,0.011-0.014  c0.154-0.183,0.203-0.437,0.129-0.664c-1.107-3.42-2.875-6.64-5.31-9.48l2.711-2.474c1.923,2.253,3.408,4.754,4.454,7.41  c0.225,0.57,1.02,0.599,1.274,0.041c0.004-0.009,0.007-0.017,0.01-0.023c0.079-0.171,0.083-0.371,0.014-0.547  c-1.106-2.806-2.679-5.447-4.716-7.825l2.707-2.469c1.009,1.182,1.902,2.428,2.667,3.733c0.337,0.576,1.222,0.378,1.281-0.286  c0.001-0.01,0.002-0.02,0.003-0.03c0.013-0.147-0.021-0.297-0.096-0.426c-0.81-1.375-1.754-2.69-2.82-3.935l2.755-2.512l9.403,0.432  c0.521,0.024,0.69-0.68,0.22-0.901c-2.102-0.984-4.054-2.395-5.721-4.223c-1.663-1.824-2.888-3.896-3.674-6.08  c-0.176-0.49-0.893-0.385-0.917,0.135l-0.438,9.399l-2.755,2.513C42.867,46.418,41.652,45.361,40.365,44.43z M21.491,67.683  c-0.577,0.527-1.478,0.493-2.012-0.093s-0.492-1.494,0.085-2.021c0.585-0.534,1.494-0.492,2.028,0.094  C22.126,66.248,22.076,67.147,21.491,67.683z M20.531,65.819c-0.203,0-0.397,0.075-0.546,0.213  c-0.325,0.295-0.345,0.807-0.044,1.138c0.153,0.167,0.363,0.26,0.59,0.26c0.2,0,0.392-0.074,0.54-0.209  c0.161-0.147,0.256-0.347,0.267-0.562c0.011-0.212-0.062-0.417-0.206-0.576C20.975,65.913,20.762,65.819,20.531,65.819z   M17.042,23.833c0.129,0.295,0.473,0.594,0.782,0.695c1.025,0.333,1.329,1.032,0.778,1.966c-0.716,1.212-1.38,2.457-2.144,3.637  c-2.039,3.151-1.211,6.844,1.65,9.252c-0.271,2.657,0.59,4.768,2.6,6.421c-0.216,2.34,0.422,4.335,2.001,5.841  c0.36-0.322,0.777-0.598,1.246-0.837c-1.524-1.004-2.233-2.764-1.816-4.605c0.195-0.86-0.077-1.359-0.832-1.764  c-1.343-0.72-2.267-3.008-1.812-4.487c0.271-0.885,0.044-1.464-0.757-1.916c-1.451-0.82-2.618-3.491-1.973-5.068  c0.802-1.962,1.829-3.844,2.899-5.678c0.496-0.849,0.828-1.56,0.273-2.462c-0.531-0.863-0.286-1.372,0.678-1.714  c1.367-0.487,2.707-1.057,4.033-1.648c0.765-0.341,1.263-0.187,1.443,0.622c0.275,1.239,1.112,1.623,2.265,1.835  c1.379,0.254,2.712,0.753,4.079,1.092c2.453,0.608,3.902,2.484,3.904,4.658c0.001,1.819,0.432,2.767,1.675,3.974  c0.868,0.843,1.519,2.352,0.872,3.925c-0.125,0.303,0.24,0.965,0.616,1.335c0.444-0.183,0.903-0.369,1.379-0.558  c-0.205-0.192-0.419-0.369-0.646-0.518c0.398-2.437-0.552-4.768-2.626-6.442c0.602-2.896-1.099-6.179-3.91-7.238  c-1.748-0.658-3.585-1.084-5.392-1.583c-1.039-0.287-1.336-0.98-0.861-1.965c0.146-0.302,0.202-0.752,0.088-1.055  c-0.634-1.678-1.275-3.359-2.051-4.974c-0.189-0.393-0.941-0.831-1.345-0.757c-3.14,0.573-6.059,1.752-8.727,3.526  c-0.595,0.395-0.728,0.848-0.438,1.521C15.686,20.509,16.322,22.189,17.042,23.833z M94.545,71.416  c-5.964-4.338-8.476-9.039-10.489-12.826c-2.149-4.013-3.562-6.663-7.801-6.714c-0.573,0-1.299-0.012-2.036-0.062  c0,0-0.507,0.09-1.303,0.041c0.009,0.242,0.018,0.483,0.066,0.726c0.054,0.254,0.095,0.5,0.122,0.759  c0.062,0.599-0.151,1.121-0.6,1.47c-0.174,0.148-0.371,0.286-0.573,0.423l-0.223,0.156c-1.062,0.726-1.688,1.71-1.871,2.935  c-0.153,1.033-0.002,1.967,0.452,2.776l0.522,0.933c0.455,0.281,0.909,0.564,1.37,0.887c0.392,0.275,0.017,0.927-0.379,0.648  c-2.239-1.574-4.473-2.683-7.059-3.581c-2.188-0.76-4.168-2.974-6.585-2.777c-0.482,0.039-0.479-0.712,0-0.751  c1.115-0.09,2.078,0.254,2.998,0.736l0.458-0.19c1.874-0.781,2.993-2.868,2.602-4.853c-0.054-0.303-0.107-0.596-0.135-0.889  c-0.057-0.589,0.179-1.131,0.647-1.482c0.168-0.131,0.351-0.254,0.535-0.376l0.188-0.127c0.533-0.367,0.957-0.797,1.273-1.286  c-1.21-2.309-2.519-3.768-4.11-4.528c-1.624-0.775-2.825-1.762-3.699-3.025c-0.663-0.95-1.414-1.688-2.288-2.263  c-1.413-0.925-2.776-1.75-4.038-2.425c-1.181-0.63-2.564-0.665-3.779-0.15c0.782,2.064,1.931,3.951,3.437,5.602  c1.575,1.728,3.434,3.1,5.522,4.078c0.473,0.222,0.723,0.729,0.609,1.235c-0.112,0.505-0.552,0.857-1.067,0.857l-9.199-0.422  l-2.121,1.935c0.936,1.14,1.773,2.334,2.495,3.56c0.141,0.239,0.205,0.523,0.18,0.801c-0.065,0.71-0.631,1.223-1.319,1.223  c-0.467,0-0.889-0.241-1.126-0.646c-0.633-1.079-1.369-2.137-2.19-3.147l-1.78,1.624c1.866,2.272,3.356,4.806,4.433,7.537  c0.131,0.332,0.122,0.71-0.026,1.035c-0.226,0.498-0.684,0.794-1.204,0.794c-0.547,0-1.03-0.331-1.231-0.842  c-0.959-2.437-2.282-4.7-3.934-6.735l-1.785,1.628c2.25,2.74,3.944,5.844,5.04,9.23c0.14,0.43,0.045,0.913-0.244,1.259  c-0.263,0.312-0.629,0.482-1.018,0.482c-0.574,0-1.078-0.364-1.253-0.906c-0.979-3.032-2.487-5.813-4.486-8.277l-1.782,1.626  c2.277,2.774,3.984,5.916,5.079,9.345c0.169,0.529-0.015,1.113-0.459,1.45c-0.244,0.186-0.518,0.277-0.805,0.277  c-0.579,0-1.086-0.373-1.264-0.927c-0.979-3.064-2.496-5.872-4.513-8.356l-1.781,1.625c2.044,2.49,3.634,5.288,4.729,8.322  c0.229,0.639-0.071,1.357-0.686,1.64c-0.191,0.088-0.377,0.128-0.569,0.128c-0.555,0-1.055-0.353-1.243-0.878  c-0.977-2.701-2.386-5.195-4.193-7.425l-1.303,1.188c1.606,2.311,2.322,5.206,2.02,8.222l-0.047,0.474l-0.468,0.08  c-1.315,0.228-2.66,0.344-3.997,0.344c-0.358,0-0.719-0.009-1.081-0.026l-6.143-0.273c-0.536-0.024-1.032-0.259-1.395-0.656  c-0.363-0.398-0.55-0.912-0.525-1.448l0.291-6.143c0.078-1.695,0.341-3.387,0.782-5.026l0.123-0.459c0,0,0.477-0.004,0.478-0.004  c3.092,0,5.873,0.975,7.992,2.757l1.305-1.189c-2.047-2.005-4.398-3.641-6.998-4.866c-0.017-0.007-0.028-0.024-0.044-0.034  c-0.987,1.677-2.079,3.029-3.984,3.958c-4.3,2.102-7.588,4.301-10.714,8.751c-0.525,0.751-0.45,1.751,0.175,2.4  c1.863,1.9,4.225,3.501,7.038,4.801c0.113-0.013,0.213-0.013,0.312-0.013h0.613c0.388,0,0.687-0.024,0.913-0.161  c0.175-0.101,0.35-0.325,0.537-0.551c0.4-0.487,0.95-1.164,1.95-1.2c0.013-0.013,0.063-0.013,0.063-0.013  c0.987,0,1.825,0.762,2.5,1.363c0.15,0.124,0.275,0.249,0.4,0.337c1.125,0.9,2.213,1.851,3.288,2.812  c0.663-0.013,1.338-0.049,2.05-0.112c0.212-0.024,0.425-0.024,0.638-0.024c1.438,0,2.775,0.461,4.1,1.398  c6.788,4.889,11.388,4.302,21.014,1.663c2.101-0.573,3.726-0.712,5.525-0.749c1.275-0.024,2.451,0.425,3.789,0.938  c0.512,0.2,1.05,0.412,1.636,0.612c2.401,0.788,6.539-1.001,12.252-3.462c0.838-0.364,1.713-0.751,2.625-1.138  c2.063-0.877,4.952-1.639,8.001-2.452c3.475-0.925,7.089-1.887,9.576-3.062c0.375-0.176,0.613-0.524,0.649-0.938  C95.032,72.028,94.87,71.653,94.545,71.416z M51.111,64.463c-0.511,0.271-0.846,0.942-0.897,1.796c-0.021,0.332-0.006,0.667,0.007,1  c0.018,0.47,0.038,0.956-0.031,1.441c-0.117,0.809-0.604,1.839-1.599,2.083c-0.185,0.046-0.383,0.06-0.579,0.073  c-0.299,0.02-0.558,0.036-0.72,0.181c-0.141,0.127-0.209,0.359-0.281,0.605c-0.105,0.357-0.224,0.763-0.617,0.981  c-0.225,0.127-0.464,0.142-0.674,0.154l-0.131,0.008c-0.879,0.077-1.671,0.754-1.884,1.608c-0.056,0.229-0.115,0.476-0.332,0.637  c-0.165,0.122-0.358,0.144-0.486,0.156l-1.609,0.168c-0.011,0.001-0.022,0.001-0.033,0.001c-0.158,0-0.293-0.12-0.31-0.279  c-0.018-0.173,0.107-0.326,0.278-0.344l1.608-0.167c0.052-0.006,0.151-0.016,0.178-0.036c0.036-0.026,0.065-0.146,0.086-0.234  c0.288-1.159,1.312-2.033,2.449-2.132l0.147-0.011c0.158-0.009,0.307-0.018,0.407-0.073c0.169-0.096,0.24-0.336,0.322-0.613  c0.089-0.305,0.19-0.649,0.464-0.895c0.323-0.29,0.734-0.316,1.096-0.34c0.16-0.011,0.32-0.02,0.471-0.056  c0.647-0.159,1.033-0.9,1.128-1.564c0.062-0.43,0.044-0.866,0.027-1.328c-0.015-0.347-0.029-0.704-0.007-1.062  c0.066-1.091,0.513-1.932,1.229-2.312c0.153-0.082,0.342-0.023,0.422,0.13C51.322,64.193,51.264,64.383,51.111,64.463z   M56.003,59.942c-1.134-0.391-2.055-1.297-2.465-2.425c-0.06-0.161,0.024-0.341,0.186-0.4c0.165-0.058,0.342,0.024,0.4,0.188  c0.342,0.937,1.141,1.721,2.083,2.046c0.376,0.127,0.754,0.256,0.928,0.627c0.09,0.188,0.094,0.38,0.09,0.545l-0.011,0.357  c-0.025,0.666-0.053,1.353,0.362,1.718c0.132,0.117,0.31,0.199,0.497,0.286c0.113,0.051,0.228,0.104,0.336,0.163  c0.479,0.269,0.742,0.678,0.702,1.097c-0.017,0.161-0.153,0.282-0.312,0.282c-0.01,0-0.02-0.002-0.029-0.002  c-0.172-0.017-0.298-0.168-0.282-0.342c0.019-0.179-0.18-0.376-0.385-0.488c-0.093-0.054-0.191-0.098-0.29-0.143  c-0.221-0.102-0.449-0.206-0.652-0.385c-0.635-0.562-0.602-1.438-0.571-2.209l0.01-0.345c0.003-0.096,0.001-0.203-0.029-0.269  c-0.062-0.132-0.28-0.205-0.493-0.278C56.076,59.967,56.003,59.942,56.003,59.942z M63.251,77.21  c-0.452,0.122-0.921,0.184-1.389,0.184c-0.374,0-0.749-0.04-1.116-0.118c-0.281-0.061-0.638-0.163-0.901-0.427  c-0.086-0.086-0.154-0.184-0.224-0.281c-0.045-0.065-0.089-0.129-0.143-0.188c-0.176-0.186-0.473-0.273-0.786-0.366  c-0.438-0.129-0.933-0.275-1.186-0.749c-0.118-0.225-0.146-0.464-0.17-0.674l-0.009-0.078c-0.113-0.942-0.522-1.853-1.15-2.562  c-0.114-0.13-0.102-0.326,0.027-0.44c0.129-0.115,0.326-0.105,0.441,0.026c0.712,0.804,1.174,1.834,1.303,2.9l0.01,0.085  c0.018,0.169,0.037,0.33,0.1,0.45c0.13,0.241,0.445,0.334,0.812,0.443c0.361,0.105,0.771,0.228,1.062,0.535  c0.076,0.081,0.14,0.171,0.203,0.262c0.046,0.068,0.093,0.137,0.151,0.195c0.147,0.146,0.393,0.215,0.591,0.259  c0.729,0.156,1.492,0.136,2.209-0.059c0.171-0.045,0.34,0.054,0.384,0.22C63.517,76.992,63.418,77.164,63.251,77.21z M71.74,79.383  c0.027,0.171-0.088,0.332-0.259,0.358c-0.017,0.003-0.034,0.004-0.05,0.004c-0.15,0-0.283-0.108-0.309-0.263  c-0.267-1.662-0.248-3.348,0.056-5.005c0.032-0.169,0.193-0.281,0.365-0.25c0.17,0.031,0.282,0.193,0.25,0.364  C71.502,76.179,71.484,77.791,71.74,79.383z M82.97,73.488c-0.535,0.303-1.167,0.457-1.834,0.457c-0.574,0-1.175-0.115-1.753-0.345  c-1.196-0.473-2.168-1.34-2.881-2.045L76.444,71.5c-0.303-0.299-0.59-0.581-0.939-0.712c-0.366-0.14-0.786-0.103-1.229-0.063  c-0.29,0.024-0.585,0.049-0.888,0.029c-1.65-0.112-2.811-1.521-3.816-3.026c-0.097-0.143-0.059-0.338,0.085-0.434  c0.145-0.098,0.337-0.059,0.435,0.086c0.855,1.279,1.891,2.651,3.341,2.751c0.251,0.017,0.513-0.006,0.788-0.029  c0.493-0.044,1.004-0.089,1.506,0.101c0.473,0.178,0.82,0.521,1.156,0.852l0.057,0.057c0.672,0.663,1.581,1.478,2.673,1.909  c1.075,0.425,2.216,0.398,3.048-0.074c0.148-0.087,0.341-0.033,0.427,0.117C83.172,73.213,83.119,73.403,82.97,73.488z   M86.144,70.162c-0.026,0-0.054-0.004-0.08-0.012c-0.81-0.215-1.288-0.874-1.751-1.511c-0.342-0.473-0.665-0.918-1.105-1.18  c-0.184-0.108-0.391-0.187-0.608-0.269c-0.193-0.073-0.384-0.146-0.566-0.238c-0.901-0.46-1.515-1.41-1.563-2.421  c-0.021-0.447,0.062-0.879,0.145-1.294c0.056-0.295,0.111-0.573,0.129-0.854c0.052-0.798-0.255-1.635-0.842-2.295  c-0.586-0.662-1.382-1.065-2.181-1.108c-0.173-0.01-0.305-0.156-0.295-0.328c0.007-0.173,0.153-0.314,0.327-0.296  c0.966,0.052,1.919,0.531,2.616,1.317c0.697,0.783,1.061,1.787,0.998,2.752c-0.021,0.319-0.081,0.63-0.14,0.933  c-0.078,0.396-0.151,0.771-0.134,1.145c0.038,0.779,0.53,1.54,1.225,1.894c0.161,0.082,0.331,0.146,0.501,0.209  c0.234,0.089,0.477,0.181,0.708,0.317c0.551,0.327,0.928,0.848,1.291,1.349c0.418,0.575,0.811,1.117,1.407,1.276  c0.166,0.044,0.266,0.215,0.222,0.382C86.408,70.07,86.283,70.162,86.144,70.162z M88.203,81.099  c-0.302-0.602-0.771-1.209-1.437-1.299c-0.061-0.008-0.12-0.012-0.179-0.012c-0.388,0-0.768,0.153-1.15,0.239  c-0.137,0.029-0.283,0.048-0.427,0.048c-0.321,0-0.635-0.092-0.818-0.345c-0.138-0.19-0.177-0.443-0.337-0.614  c-0.125-0.134-0.283-0.189-0.453-0.189c-0.338,0-0.729,0.214-1.016,0.438c-0.914,0.713-3.728,2.776-2.719,3.962  c1.014,1.191,4.693,1.112,6.104,1.192c0.204,0.012,0.408,0.022,0.611,0.022c0.261,0,0.52-0.018,0.773-0.073  c0.817-0.182,1.491-0.742,2.131-1.284c0.042-0.037,0.088-0.077,0.101-0.132c0.021-0.098-0.068-0.179-0.143-0.244  C88.736,82.369,88.505,81.7,88.203,81.099z M19.335,77.593c-0.599-0.478-1.534-1.521-2.379-1.521c-0.013,0-0.025,0-0.038,0.002  c-1.024,0.037-1.319,1.163-2.091,1.637c-0.401,0.247-0.865,0.283-1.343,0.283c-0.2,0-0.403-0.006-0.605-0.006  c-0.361,0-0.719,0.021-1.053,0.134c-0.797,0.272-1.318,1.022-1.749,1.746c-0.586,0.986-1.111,2.01-1.57,3.062  c-0.078,0.178-0.155,0.37-0.119,0.561c0.055,0.284,0.336,0.459,0.592,0.592c2.542,1.325,5.422,2.112,8.273,2.112  c1.551,0,3.093-0.233,4.568-0.741c1.23-0.422,2.452-1.075,3.151-2.173c0.058-0.09,0.113-0.187,0.127-0.293  c0.036-0.259-0.167-0.483-0.356-0.664C23.015,80.664,21.209,79.085,19.335,77.593z"/><text x="0" y="115" fill="#000000" font-size="5px" font-weight="bold" font-family="'Helvetica Neue', Helvetica, Arial-Unicode, Arial, Sans-serif">Created by Kevin</text><text x="0" y="120" fill="#000000" font-size="5px" font-weight="bold" font-family="'Helvetica Neue', Helvetica, Arial-Unicode, Arial, Sans-serif">from the Noun Project</text></svg>